<svg xmlns="http://www.w3.org/2000/svg" width="28" height="32" viewBox="0 0 25 28" fill="none">
  <path d="M13.228 0.772C12.779 0.513 12.227 0.513 11.778 0.772L1.26 6.845C0.811 7.104 0.535 7.583 0.535 8.1V20.246C0.535 20.764 0.811 21.242 1.26 21.501L11.778 27.574C12.227 27.833 12.779 27.833 13.228 27.574L23.746 21.501C24.195 21.242 24.471 20.764 24.471 20.246V11.068L24.444 11.083V11.063L15.876 15.797L19.277 17.752L19.997 17.357V18.5L12.503 22.826L5.009 18.5V9.847L12.503 5.52L19.658 9.651L24.09 7.121C23.991 7.014 23.876 6.92 23.746 6.845L13.228 0.772Z" fill="white"/>
  <path d="M12.637 21.405V17.64L15.511 15.98L18.772 17.863L12.637 21.405Z" fill="#0073E6"/>
  <path d="M12.424 21.405V17.64L9.55 15.98L6.289 17.863L12.424 21.405Z" fill="#0073E6"/>
  <path d="M6.211 17.713V10.609L9.469 12.49V15.832L6.211 17.713Z" fill="#0073E6"/>
  <path d="M12.422 6.938L6.301 10.472L9.556 12.351L12.422 10.696V6.938Z" fill="#0073E6"/>
  <path d="M12.637 10.696L15.51 12.355L18.765 10.476L12.637 6.938V10.696Z" fill="#0073E6"/>
</svg>
