<?xml version="1.0" encoding="UTF-8"?> <svg xmlns="http://www.w3.org/2000/svg" width="29" height="32" viewBox="0 0 29 32" fill="none"><path d="M14.8754 0.228561C14.3498 -0.076187 13.7022 -0.0761871 13.1765 0.228561L0.849429 7.37556C0.323801 7.68031 0 8.24351 0 8.853L0 23.147C0 23.7565 0.3238 24.3197 0.849429 24.6244L13.1765 31.7714C13.7022 32.0762 14.3498 32.0762 14.8754 31.7714L27.2025 24.6244C27.7281 24.3197 28.052 23.7565 28.052 23.147L28.052 12.3456L28.0206 12.3627V12.3393L17.9796 17.9115L21.9646 20.2117L22.8086 19.7469V21.092L14.026 26.184L5.2434 21.092L5.2434 10.908L14.026 5.81607L22.4109 10.6775L27.6056 7.70036C27.4902 7.57384 27.3548 7.46385 27.2025 7.37556L14.8754 0.228561Z" fill="#000102"></path><path d="M14.1562 24.4759L14.1562 20.051L17.5336 18.1011L21.3657 20.3135L14.1562 24.4759Z" fill="#0073E6"></path><path d="M13.9048 24.4759L13.9048 20.051L10.5274 18.1011L6.69531 20.3135L13.9048 24.4759Z" fill="#0073E6"></path><path d="M6.60156 20.1393L6.60156 11.7915L10.43 14.0019L10.43 17.929L6.60156 20.1393Z" fill="#0073E6"></path><path d="M13.9043 7.47363L6.71094 11.6267L10.5357 13.835L13.9043 11.8901L13.9043 7.47363Z" fill="#0073E6"></path><path d="M14.1562 11.8901L17.5328 13.8396L21.3576 11.6314L14.1562 7.47363L14.1562 11.8901Z" fill="#0073E6"></path></svg> 