<svg xmlns="http://www.w3.org/2000/svg" width="416" height="416" viewBox="0 0 416 416" fill="none">
  <defs>
    <linearGradient id="reasons-outline-strong" x1="48" y1="110" x2="368" y2="306" gradientUnits="userSpaceOnUse">
      <stop stop-color="#0073E6" stop-opacity="0.55"/>
      <stop offset="0.5" stop-color="#0073E6" stop-opacity="0.08"/>
      <stop offset="1" stop-color="#0073E6" stop-opacity="0.55"/>
    </linearGradient>
  </defs>
  <path
    d="M188 12Q208 -2 228 12L387 104Q410 117 410 144V272Q410 299 387 312L228 404Q208 418 188 404L29 312Q6 299 6 272V144Q6 117 29 104L188 12Z"
    stroke="#0073E6"
    stroke-opacity="0.12"
    stroke-width="1.5"
    stroke-linecap="round"
    stroke-linejoin="round"
  />
  <path
    d="M188 12Q208 -2 228 12L387 104Q410 117 410 144V272Q410 299 387 312L228 404Q208 418 188 404L29 312Q6 299 6 272V144Q6 117 29 104L188 12Z"
    stroke="url(#reasons-outline-strong)"
    stroke-width="1.5"
    stroke-linecap="round"
    stroke-linejoin="round"
  />
</svg>
