<svg xmlns="http://www.w3.org/2000/svg" width="416" height="416" viewBox="0 0 416 416" fill="none">
  <defs>
    <linearGradient id="reasons-outline-strong-v2" x1="32" y1="108" x2="384" y2="308" gradientUnits="userSpaceOnUse">
      <stop stop-color="#0073E6" stop-opacity="0.55"/>
      <stop offset="0.5" stop-color="#0073E6" stop-opacity="0.08"/>
      <stop offset="1" stop-color="#0073E6" stop-opacity="0.55"/>
    </linearGradient>
  </defs>
  <path
    d="M199 9C205 5 211 5 217 9L377 101C392 110 401 126 401 143V273C401 290 392 306 377 315L217 407C211 411 205 411 199 407L39 315C24 306 15 290 15 273V143C15 126 24 110 39 101L199 9Z"
    stroke="#0073E6"
    stroke-opacity="0.12"
    stroke-width="1.5"
    stroke-linecap="round"
    stroke-linejoin="round"
  />
  <path
    d="M199 9C205 5 211 5 217 9L377 101C392 110 401 126 401 143V273C401 290 392 306 377 315L217 407C211 411 205 411 199 407L39 315C24 306 15 290 15 273V143C15 126 24 110 39 101L199 9Z"
    stroke="url(#reasons-outline-strong-v2)"
    stroke-width="1.5"
    stroke-linecap="round"
    stroke-linejoin="round"
  />
</svg>
