<svg xmlns="http://www.w3.org/2000/svg" width="416" height="416" viewBox="0 0 416 416" fill="none">
  <defs>
    <linearGradient id="reasons-card-fill" x1="208" y1="12" x2="208" y2="404" gradientUnits="userSpaceOnUse">
      <stop stop-color="#1780F2"/>
      <stop offset="0.62" stop-color="#0C3469"/>
      <stop offset="1" stop-color="#071522"/>
    </linearGradient>
    <radialGradient id="reasons-card-glow" cx="0" cy="0" r="1" gradientUnits="userSpaceOnUse" gradientTransform="translate(208 356) rotate(90) scale(92 170)">
      <stop stop-color="#0073E6" stop-opacity="0.62"/>
      <stop offset="1" stop-color="#0073E6" stop-opacity="0"/>
    </radialGradient>
  </defs>
  <path
    d="M188 12Q208 -2 228 12L387 104Q410 117 410 144V272Q410 299 387 312L228 404Q208 418 188 404L29 312Q6 299 6 272V144Q6 117 29 104L188 12Z"
    fill="url(#reasons-card-fill)"
  />
  <path
    d="M188 12Q208 -2 228 12L387 104Q410 117 410 144V272Q410 299 387 312L228 404Q208 418 188 404L29 312Q6 299 6 272V144Q6 117 29 104L188 12Z"
    fill="url(#reasons-card-glow)"
  />
  <path
    d="M188 12Q208 -2 228 12L387 104Q410 117 410 144V272Q410 299 387 312L228 404Q208 418 188 404L29 312Q6 299 6 272V144Q6 117 29 104L188 12Z"
    stroke="#0073E6"
    stroke-width="1.5"
    stroke-linecap="round"
    stroke-linejoin="round"
  />
</svg>
