<svg xmlns="http://www.w3.org/2000/svg" width="416" height="416" viewBox="0 0 416 416" fill="none">
  <defs>
    <linearGradient id="reasons-outline-strong" x1="48" y1="110" x2="368" y2="306" gradientUnits="userSpaceOnUse">
      <stop stop-color="#0073E6" stop-opacity="0.55"/>
      <stop offset="0.5" stop-color="#0073E6" stop-opacity="0.08"/>
      <stop offset="1" stop-color="#0073E6" stop-opacity="0.55"/>
    </linearGradient>
  </defs>
  <path
    d="M194 28Q208 16 222 28L352 103Q372 114 372 136V280Q372 302 352 313L222 388Q208 400 194 388L64 313Q44 302 44 280V136Q44 114 64 103L194 28Z"
    stroke="#0073E6"
    stroke-opacity="0.12"
    stroke-width="1.5"
    stroke-linejoin="round"
  />
  <path
    d="M194 28Q208 16 222 28L352 103Q372 114 372 136V280Q372 302 352 313L222 388Q208 400 194 388L64 313Q44 302 44 280V136Q44 114 64 103L194 28Z"
    stroke="url(#reasons-outline-strong)"
    stroke-width="1.5"
    stroke-linejoin="round"
  />
</svg>
