<svg xmlns="http://www.w3.org/2000/svg" width="416" height="416" viewBox="0 0 416 416" fill="none">
  <defs>
    <linearGradient id="reasons-card-fill" x1="208" y1="12" x2="208" y2="404" gradientUnits="userSpaceOnUse">
      <stop stop-color="#1780F2"/>
      <stop offset="0.62" stop-color="#0C3469"/>
      <stop offset="1" stop-color="#071522"/>
    </linearGradient>
    <radialGradient id="reasons-card-glow" cx="0" cy="0" r="1" gradientUnits="userSpaceOnUse" gradientTransform="translate(208 356) rotate(90) scale(92 170)">
      <stop stop-color="#0073E6" stop-opacity="0.62"/>
      <stop offset="1" stop-color="#0073E6" stop-opacity="0"/>
    </radialGradient>
  </defs>
  <path
    d="M194 28Q208 16 222 28L352 103Q372 114 372 136V280Q372 302 352 313L222 388Q208 400 194 388L64 313Q44 302 44 280V136Q44 114 64 103L194 28Z"
    fill="url(#reasons-card-fill)"
  />
  <path
    d="M194 28Q208 16 222 28L352 103Q372 114 372 136V280Q372 302 352 313L222 388Q208 400 194 388L64 313Q44 302 44 280V136Q44 114 64 103L194 28Z"
    fill="url(#reasons-card-glow)"
  />
  <path
    d="M194 28Q208 16 222 28L352 103Q372 114 372 136V280Q372 302 352 313L222 388Q208 400 194 388L64 313Q44 302 44 280V136Q44 114 64 103L194 28Z"
    stroke="#0073E6"
    stroke-width="1.5"
    stroke-linejoin="round"
  />
</svg>
