<?xml version="1.0" encoding="UTF-8"?> <svg xmlns="http://www.w3.org/2000/svg" width="221" height="649" viewBox="0 0 221 649" fill="none"><path fill-rule="evenodd" clip-rule="evenodd" d="M4.94727 434.189C5.39698 433.924 5.95264 433.924 6.40234 434.189L10.6211 436.649L10.5947 436.662C11.0444 436.927 11.3223 437.416 11.3223 437.932V442.813C11.3223 443.329 11.0444 443.805 10.5947 444.069L6.375 446.49C6.30894 446.53 6.22961 446.557 6.15039 446.583L6.11133 501.784L32.8301 517.393C32.9226 517.3 33.0286 517.221 33.1475 517.155L38.3057 514.192C38.8479 513.861 39.5226 513.874 40.0781 514.192L45.2363 517.208C45.7919 517.526 46.123 518.121 46.123 518.756V524.722C46.1229 525.357 45.7918 525.939 45.2363 526.256L40.0781 529.219C39.9327 529.311 39.7875 529.365 39.6289 529.404L39.5225 611.339L76.2148 632.597C76.4132 632.332 76.6514 632.094 76.9424 631.922L83.9922 627.874C84.746 627.424 85.6719 627.438 86.4258 627.874L93.4756 631.988C93.8855 632.24 94.2034 632.596 94.415 633.02C94.6795 633.416 94.8251 633.866 94.8252 634.356V642.518C94.8252 643.391 94.3623 644.185 93.6084 644.621L86.5586 648.669C85.8046 649.119 84.878 649.106 84.124 648.669L77.0742 644.555C76.6644 644.304 76.3473 643.947 76.1357 643.524C75.8712 643.127 75.7256 642.676 75.7256 642.187V634.026C75.7256 633.827 75.765 633.641 75.8047 633.456L38.5703 611.882L38.6758 529.352C38.557 529.325 38.4382 529.272 38.3193 529.206L33.1602 526.19C32.6048 525.872 32.2744 525.277 32.2744 524.642V518.676C32.2744 518.517 32.3002 518.359 32.3398 518.2L5.17188 502.326L5.21191 446.583C5.11934 446.557 5.02662 446.53 4.94727 446.477L0.727539 444.017C0.27794 443.752 0.000151784 443.263 0 442.747V437.865C8.36725e-05 437.35 0.277885 436.873 0.727539 436.609L4.94727 434.189ZM86.5586 632.213C85.8046 631.79 84.878 631.776 84.124 632.213L80.5928 634.237C79.8391 634.674 79.3761 635.467 79.376 636.34V640.441C79.376 640.824 79.4687 641.195 79.6406 641.526C79.8522 641.83 80.1167 642.107 80.4473 642.306L83.9785 644.37C84.7325 644.794 85.6591 644.807 86.4131 644.37L89.9443 642.346C90.6983 641.909 91.1611 641.115 91.1611 640.242V636.142C91.1611 635.758 91.0684 635.387 90.8965 635.057C90.6849 634.753 90.4204 634.475 90.0898 634.276L86.5586 632.213ZM124.982 448.936C125.432 448.671 125.988 448.671 126.438 448.936L130.656 451.397C131.106 451.661 131.384 452.15 131.384 452.666V457.548C131.384 457.707 131.358 457.866 131.305 458.011L196.752 496.266C196.924 496.067 197.123 495.896 197.348 495.764L204.397 491.716C205.151 491.266 206.077 491.28 206.831 491.716L213.882 495.829L213.868 495.817C214.609 496.253 215.072 497.06 215.072 497.933V506.095C215.072 506.968 214.609 507.762 213.855 508.198L206.805 512.246C206.567 512.378 206.316 512.457 206.064 512.51L205.998 625.24C206.17 625.267 206.342 625.32 206.501 625.412L210.721 627.873C211.17 628.138 211.448 628.627 211.448 629.143V634.024C211.448 634.539 211.17 635.016 210.721 635.28L206.501 637.701C206.051 637.966 205.496 637.966 205.046 637.701L200.826 635.241C200.376 634.977 200.099 634.487 200.099 633.971V629.09C200.099 628.574 200.377 628.098 200.826 627.833L205.046 625.412L205.112 512.51C204.848 512.457 204.596 512.378 204.371 512.246L197.321 508.132C196.581 507.696 196.117 506.889 196.117 506.016V497.854C196.117 497.589 196.183 497.337 196.263 497.086L130.696 458.765C130.683 458.778 130.657 458.803 130.656 458.804L126.438 461.225C125.988 461.489 125.432 461.489 124.982 461.225L120.763 458.765C120.313 458.5 120.035 458.01 120.035 457.494V452.613C120.035 452.098 120.313 451.621 120.763 451.357L124.982 448.936ZM206.514 627.833C206.064 627.582 205.508 627.569 205.059 627.833L202.942 629.05C202.493 629.301 202.215 629.791 202.215 630.307V632.754C202.215 633.283 202.493 633.759 202.942 634.024L205.059 635.254C205.508 635.505 206.064 635.518 206.514 635.254L208.631 634.037C209.08 633.786 209.357 633.296 209.357 632.78V630.333C209.357 629.804 209.08 629.328 208.631 629.064L206.514 627.833ZM97.1113 393.075C97.561 392.811 98.1167 392.811 98.5664 393.075L102.785 395.536L102.772 395.549C103.222 395.814 103.5 396.304 103.5 396.819V401.7C103.5 402.216 103.222 402.693 102.772 402.957L98.5527 405.378C98.4867 405.418 98.4073 405.443 98.3281 405.47L98.4072 473.185L56.7549 497.075L56.7021 587.383L117.322 622.795C117.454 622.65 117.6 622.517 117.771 622.411L123.155 619.329C123.724 618.985 124.438 618.999 125.007 619.329L130.391 622.478C130.972 622.808 131.316 623.43 131.316 624.091V630.321C131.316 630.996 130.959 631.605 130.391 631.936L125.007 635.018C124.438 635.362 123.724 635.348 123.155 635.018L117.771 631.869C117.19 631.539 116.846 630.917 116.846 630.256V624.026C116.846 623.906 116.873 623.787 116.899 623.668L55.75 587.939L55.8027 496.52L97.4551 472.629L97.376 405.484C97.2834 405.444 97.1907 405.417 97.1113 405.364L92.8916 402.904C92.4419 402.64 92.1641 402.15 92.1641 401.634V396.753C92.1641 396.237 92.4419 395.761 92.8916 395.496L97.1113 393.075ZM125.007 622.411C124.438 622.081 123.724 622.081 123.155 622.411L120.457 623.959C119.888 624.29 119.531 624.912 119.531 625.573V628.694C119.531 629.356 119.888 629.978 120.457 630.309L123.155 631.883C123.724 632.214 124.438 632.213 125.007 631.883L127.705 630.335C128.274 630.004 128.632 629.382 128.632 628.721V625.6C128.632 624.938 128.274 624.316 127.705 623.985L125.007 622.411ZM128.278 495.419C130.527 494.136 133.291 494.15 135.54 495.459L172.245 516.915C174.494 518.225 175.869 520.646 175.869 523.238L175.843 565.753C175.83 568.359 174.454 570.753 172.206 572.036L135.474 593.096C133.225 594.379 130.46 594.365 128.212 593.056L91.5068 571.6C89.2584 570.29 87.8828 567.882 87.8828 565.276L87.9092 522.762C87.9224 520.156 89.2983 517.762 91.5469 516.479L128.278 495.419ZM135.223 499.639C133.172 498.435 130.633 498.423 128.583 499.6L94.9854 518.859C92.9353 520.037 91.666 522.22 91.666 524.601L91.6396 563.491C91.6397 565.872 92.909 568.068 94.959 569.272L128.529 588.889C130.579 590.093 133.12 590.106 135.17 588.929L168.767 569.669C170.817 568.492 172.087 566.309 172.087 563.928L172.113 525.037C172.113 522.656 170.843 520.46 168.793 519.256L135.223 499.639ZM40.1045 517.168C39.5622 516.851 38.8875 516.851 38.332 517.168L35.7393 518.65C35.6203 518.716 35.5144 518.795 35.4219 518.888L39.6416 521.361V526.414C39.8003 526.375 39.9463 526.309 40.0918 526.23L42.6836 524.748C43.2259 524.444 43.5703 523.848 43.5703 523.213V520.224C43.5703 519.589 43.2391 518.993 42.6836 518.676L40.1045 517.168ZM34.9062 519.708C34.8666 519.853 34.8399 520.025 34.8398 520.184V523.187C34.8398 523.822 35.171 524.417 35.7266 524.734L38.3057 526.242C38.4246 526.322 38.5436 526.362 38.6758 526.401V521.917L34.9062 519.708ZM206.831 495.777C206.077 495.353 205.151 495.34 204.397 495.777L200.866 497.801C200.628 497.933 200.442 498.105 200.271 498.304L206.091 501.703V508.449C206.355 508.396 206.606 508.317 206.831 508.185L210.363 506.161C211.117 505.725 211.58 504.931 211.58 504.058V499.957C211.58 499.084 211.117 498.277 210.363 497.84L206.831 495.777ZM199.795 499.123C199.716 499.361 199.649 499.626 199.649 499.891V503.991C199.649 504.864 200.112 505.671 200.866 506.108L204.397 508.172C204.636 508.304 204.887 508.383 205.139 508.436V502.245L199.795 499.123ZM14.6299 357.067C14.9473 356.881 15.331 356.881 15.6484 357.067L18.5977 358.786C18.915 358.971 19.1006 359.302 19.1006 359.672V363.085C19.1005 363.112 19.0742 363.178 19.0742 363.178L69.7734 393.139C69.8792 393.046 69.9855 392.954 70.1045 392.888L75.4873 389.806C76.056 389.462 76.7701 389.475 77.3389 389.806L82.7227 392.954L82.71 392.967C83.2918 393.298 83.6357 393.92 83.6357 394.581V400.812C83.6357 401.486 83.2784 402.094 82.71 402.425L77.3262 405.508C77.1676 405.614 76.9956 405.667 76.8105 405.706L76.4795 464.584L39.8008 485.617V489.057C39.8006 489.427 39.6023 489.757 39.2852 489.943L36.335 491.636C36.0176 491.821 35.6338 491.821 35.3164 491.636L32.3672 489.916C32.0497 489.731 31.8643 489.4 31.8643 489.029V485.617C31.8643 485.247 32.0626 484.916 32.3799 484.731L35.3301 483.037C35.6475 482.852 36.0312 482.852 36.3486 483.037L39.2979 484.757C39.3218 484.769 39.324 484.781 39.3242 484.783L75.5273 464.028L75.8574 405.666C75.7255 405.627 75.5934 405.574 75.4746 405.508L70.0908 402.36C69.5088 402.029 69.165 401.407 69.165 400.745V394.515C69.1651 394.33 69.2049 394.145 69.2578 393.973L18.5449 363.997L15.6348 365.664C15.3173 365.849 14.9337 365.849 14.6162 365.664L11.667 363.944C11.3496 363.759 11.1641 363.429 11.1641 363.059V359.646C11.1641 359.275 11.3622 358.944 11.6797 358.759L14.6299 357.067ZM36.3613 484.731C36.0439 484.546 35.6601 484.546 35.3428 484.731L33.8613 485.577C33.5441 485.763 33.3457 486.094 33.3457 486.464V488.184C33.3459 488.554 33.5313 488.884 33.8486 489.069L35.3301 489.93C35.6474 490.115 36.0313 490.115 36.3486 489.93L37.8301 489.083C38.1475 488.898 38.3457 488.567 38.3457 488.196V486.477C38.3457 486.106 38.1602 485.776 37.8428 485.591L36.3613 484.731ZM157.204 297.248C157.522 297.063 157.905 297.063 158.223 297.248L161.172 298.967V298.981C161.489 299.166 161.675 299.497 161.675 299.867V303.279C161.675 303.65 161.476 303.981 161.158 304.166L158.209 305.86L158.314 355.703L209.107 385.387L209.067 444.768L190.854 455.218C190.867 455.311 190.88 455.39 190.88 455.483V460.363C190.88 460.879 190.602 461.356 190.152 461.62L185.933 464.041C185.483 464.305 184.928 464.305 184.479 464.041L180.259 461.58C179.809 461.316 179.531 460.827 179.531 460.311V455.43C179.531 454.914 179.809 454.438 180.259 454.173L184.479 451.752C184.928 451.488 185.483 451.488 185.933 451.752L190.152 454.213C190.232 454.253 190.298 454.318 190.364 454.371L208.102 444.199L208.142 385.929L157.35 356.245L157.243 305.86C157.23 305.846 157.19 305.846 157.19 305.846L154.241 304.126C153.924 303.941 153.738 303.611 153.738 303.24V299.827C153.752 299.457 153.936 299.126 154.254 298.941L157.204 297.248ZM185.946 454.187C185.497 453.935 184.941 453.922 184.491 454.187L182.375 455.403C181.925 455.655 181.647 456.144 181.647 456.66V459.107C181.647 459.636 181.925 460.113 182.375 460.377L184.491 461.608C184.941 461.859 185.497 461.872 185.946 461.608L188.062 460.39C188.512 460.139 188.79 459.65 188.79 459.134V456.687C188.79 456.158 188.512 455.681 188.062 455.416L185.946 454.187ZM174.544 349.872C174.861 349.687 175.245 349.687 175.562 349.872L178.512 351.592C178.816 351.777 179.015 352.107 179.015 352.478V355.917C179.015 355.943 178.99 356.007 178.988 356.01L220.613 380.336L220.574 447.641L212.902 452.046C212.916 452.139 212.929 452.218 212.929 452.311V457.192C212.929 457.707 212.651 458.184 212.201 458.448L207.981 460.869C207.532 461.134 206.976 461.134 206.526 460.869L202.308 458.408C201.858 458.144 201.58 457.655 201.58 457.139V452.258C201.58 451.742 201.858 451.266 202.308 451.001L206.526 448.58C206.976 448.316 207.532 448.316 207.981 448.58L212.201 451.041C212.28 451.081 212.347 451.146 212.413 451.199L219.608 447.072L219.648 380.879L178.459 356.804L175.549 358.471C175.231 358.656 174.848 358.656 174.53 358.471L171.581 356.751C171.264 356.566 171.078 356.235 171.078 355.864V352.451C171.078 352.081 171.277 351.751 171.594 351.566L174.544 349.872ZM126.45 451.357C126.001 451.105 125.445 451.092 124.995 451.357L122.879 452.573C122.429 452.825 122.151 453.314 122.151 453.83V456.277C122.151 456.807 122.429 457.283 122.879 457.548L124.995 458.777C125.445 459.029 126 459.042 126.45 458.777L128.566 457.561C129.016 457.309 129.294 456.82 129.294 456.304V453.857C129.294 453.328 129.016 452.852 128.566 452.587L126.45 451.357ZM207.981 451.001C207.532 450.75 206.976 450.737 206.526 451.001L204.41 452.218C203.961 452.469 203.683 452.959 203.683 453.475V455.922C203.683 456.451 203.961 456.927 204.41 457.192L206.526 458.422C206.976 458.673 207.532 458.686 207.981 458.422L210.098 457.205C210.547 456.954 210.825 456.464 210.825 455.948V453.501C210.825 452.972 210.547 452.496 210.098 452.232L207.981 451.001ZM6.40234 436.622C5.9527 436.371 5.39695 436.358 4.94727 436.622L2.83105 437.839C2.38133 438.09 2.10352 438.58 2.10352 439.096V441.543C2.10355 442.072 2.38136 442.548 2.83105 442.813L4.94727 444.043C5.39694 444.294 5.9527 444.308 6.40234 444.043L8.51855 442.826C8.96818 442.575 9.24609 442.085 9.24609 441.569V439.122C9.24607 438.593 8.96805 438.117 8.51855 437.853L6.40234 436.622ZM98.5664 395.51C98.1167 395.259 97.5611 395.245 97.1113 395.51L94.9951 396.727C94.5454 396.978 94.2676 397.468 94.2676 397.984V400.431C94.2677 400.96 94.5455 401.436 94.9951 401.7L97.1113 402.931C97.561 403.182 98.1168 403.195 98.5664 402.931L100.683 401.713C101.132 401.462 101.41 400.973 101.41 400.457V398.01C101.41 397.481 101.132 397.004 100.683 396.739L98.5664 395.51ZM77.3389 392.875C76.7701 392.545 76.056 392.544 75.4873 392.875L72.7891 394.422C72.6569 394.501 72.5511 394.594 72.4453 394.687L76.625 397.16L76.8633 397.306L76.8369 402.57C77.0086 402.531 77.1804 402.478 77.3389 402.386L80.0381 400.838C80.6067 400.507 80.9639 399.885 80.9639 399.224V396.063C80.9639 395.401 80.6068 394.779 80.0381 394.448L77.3389 392.875ZM71.9297 395.56C71.89 395.732 71.8496 395.904 71.8496 396.089V399.211C71.8497 399.872 72.2076 400.494 72.7764 400.824L75.4746 402.399C75.6068 402.465 75.7389 402.518 75.8711 402.558L75.8975 397.875L71.9424 395.533L71.9297 395.56ZM145.5 254.324C145.95 254.06 146.505 254.06 146.955 254.324L151.175 256.785L151.188 256.812C151.637 257.076 151.915 257.565 151.915 258.081V262.963C151.915 263.479 151.637 263.954 151.188 264.219L146.969 266.64C146.876 266.693 146.783 266.732 146.69 266.759L146.638 341.789L118.927 357.676V362.676C118.927 363.192 118.649 363.668 118.199 363.933L113.98 366.354C113.531 366.618 112.975 366.618 112.525 366.354L108.306 363.893C107.856 363.628 107.578 363.139 107.578 362.623V357.742C107.578 357.226 107.856 356.75 108.306 356.486L112.525 354.065C112.975 353.8 113.531 353.8 113.98 354.065L118.199 356.526C118.318 356.592 118.424 356.684 118.517 356.777L145.659 341.207L145.712 266.706C145.646 266.68 145.566 266.653 145.5 266.613L141.281 264.153C140.832 263.889 140.554 263.399 140.554 262.883V258.002C140.554 257.486 140.832 257.01 141.281 256.745L145.5 254.324ZM113.98 356.472C113.531 356.221 112.975 356.208 112.525 356.472L110.409 357.69C109.96 357.941 109.682 358.43 109.682 358.945V361.393C109.682 361.922 109.959 362.399 110.409 362.663L112.525 363.893C112.975 364.144 113.531 364.157 113.98 363.893L116.097 362.676C116.546 362.425 116.824 361.935 116.824 361.419V358.973C116.824 358.444 116.546 357.967 116.097 357.702L113.98 356.472ZM15.6484 358.746C15.3311 358.574 14.9473 358.561 14.6299 358.746L13.1484 359.593C12.8311 359.778 12.632 360.108 12.6318 360.479V362.198C12.6318 362.569 12.8173 362.9 13.1348 363.085L14.6162 363.944C14.9337 364.13 15.3173 364.13 15.6348 363.944L17.1162 363.098C17.4335 362.913 17.6318 362.582 17.6318 362.212V360.492C17.6318 360.122 17.4472 359.791 17.1299 359.606L15.6484 358.746ZM175.549 351.578C175.231 351.393 174.848 351.393 174.53 351.578L173.049 352.425C172.731 352.61 172.533 352.941 172.533 353.312V355.031C172.533 355.402 172.719 355.732 173.036 355.917L174.518 356.777C174.835 356.962 175.219 356.963 175.536 356.777L177.018 355.931C177.335 355.746 177.533 355.414 177.533 355.044V353.324C177.533 352.954 177.348 352.624 177.03 352.439L175.549 351.578ZM95.751 174.452C96.3197 174.108 97.0338 174.122 97.6025 174.452L102.986 177.6L102.999 177.587C103.581 177.918 103.925 178.539 103.925 179.2V185.431C103.925 186.105 103.568 186.714 102.999 187.045L97.6162 190.127C97.5369 190.167 97.4572 190.193 97.3779 190.22L96.5576 257.339L135.75 280.25L135.723 321.588L138.673 323.308C138.99 323.493 139.176 323.824 139.176 324.194V327.608C139.176 327.978 138.977 328.308 138.659 328.493L135.71 330.187C135.393 330.372 135.009 330.372 134.691 330.187L131.742 328.467C131.425 328.282 131.239 327.951 131.239 327.58V324.168C131.239 323.798 131.437 323.467 131.755 323.281L134.704 321.588H134.758L134.784 280.819L95.5791 257.908L96.3984 190.352C96.1739 190.325 95.9492 190.26 95.751 190.141L90.3672 186.992C89.7852 186.662 89.4414 186.039 89.4414 185.378V179.148C89.4415 178.473 89.7986 177.865 90.3672 177.534L95.751 174.452ZM135.71 323.308C135.393 323.123 135.009 323.123 134.691 323.308L133.21 324.154C132.893 324.34 132.694 324.671 132.694 325.041V326.761C132.694 327.131 132.879 327.461 133.196 327.647L134.678 328.507C134.995 328.679 135.379 328.692 135.696 328.507L137.178 327.66C137.495 327.475 137.694 327.144 137.694 326.774V325.054C137.694 324.684 137.509 324.353 137.191 324.168L135.71 323.308ZM99.5605 281.721C100.592 281.126 101.876 281.125 102.907 281.734L119.864 291.642C120.909 292.25 121.544 293.361 121.531 294.565V314.209C121.531 315.4 120.882 316.51 119.851 317.106L102.881 326.842C101.849 327.437 100.566 327.437 99.5342 326.828L82.5771 316.92C81.5323 316.312 80.897 315.201 80.9102 313.997V294.354C80.9102 293.163 81.5582 292.051 82.5898 291.456L99.5605 281.721ZM102.92 286.575C101.888 285.98 100.606 285.967 99.5742 286.562L86.7832 293.891C85.7384 294.486 85.0899 295.584 85.0898 296.787V311.59C85.09 312.793 85.7382 313.904 86.7695 314.513L99.5479 321.986C100.579 322.582 101.862 322.595 102.894 322L115.685 314.672C116.73 314.077 117.378 312.978 117.378 311.775V296.973C117.378 295.769 116.729 294.657 115.697 294.049L102.92 286.575ZM158.223 298.954C157.905 298.782 157.522 298.769 157.204 298.954L155.723 299.801C155.405 299.986 155.206 300.316 155.206 300.687V302.406C155.206 302.777 155.392 303.108 155.709 303.293L157.19 304.152C157.508 304.338 157.892 304.338 158.209 304.152L159.69 303.306C160.008 303.121 160.206 302.79 160.206 302.42V300.7C160.206 300.33 160.021 299.999 159.704 299.814L158.223 298.954ZM146.955 256.759C146.505 256.508 145.95 256.494 145.5 256.759L143.384 257.976C142.934 258.227 142.656 258.717 142.656 259.233V261.68C142.656 262.209 142.934 262.685 143.384 262.949L145.5 264.18C145.95 264.431 146.505 264.444 146.955 264.18L149.071 262.963C149.521 262.712 149.799 262.222 149.799 261.706V259.259C149.799 258.73 149.521 258.253 149.071 257.988L146.955 256.759ZM166.646 72.2658C166.963 72.0806 167.347 72.0807 167.664 72.2658L170.614 73.9855L170.627 73.9728C170.944 74.158 171.13 74.4882 171.13 74.8585V78.2716C171.13 78.6418 170.931 78.9722 170.614 79.1574L167.664 80.8507L167.638 120.152L117.097 149.135L116.951 232.948C117.282 232.975 117.613 233.067 117.904 233.239L124.954 237.353C125.695 237.789 126.157 238.596 126.157 239.469V247.631C126.157 248.504 125.694 249.298 124.94 249.735L117.891 253.782C117.137 254.232 116.211 254.219 115.457 253.782L108.407 249.668C107.667 249.232 107.203 248.425 107.203 247.552V239.39C107.203 238.517 107.666 237.723 108.42 237.286L115.47 233.239C115.628 233.147 115.814 233.08 115.986 233.027L116.132 148.579L166.672 119.596L166.698 80.8771C166.673 80.8647 166.636 80.8644 166.633 80.8644L163.683 79.1447C163.365 78.9595 163.181 78.6283 163.181 78.258V74.8458C163.181 74.4755 163.379 74.1443 163.696 73.9591L166.646 72.2658ZM117.904 237.326C117.15 236.903 116.224 236.89 115.47 237.326L111.938 239.351C111.185 239.787 110.722 240.58 110.722 241.453V245.554C110.722 246.427 111.185 247.235 111.938 247.671L115.47 249.735C116.224 250.158 117.15 250.171 117.904 249.735L121.436 247.71C122.189 247.274 122.652 246.48 122.652 245.608V241.507C122.652 240.634 122.189 239.826 121.436 239.39L117.904 237.326ZM145.498 0.198386C145.948 -0.0661526 146.503 -0.0661047 146.953 0.198386L151.173 2.65835L151.16 2.67202C151.61 2.93662 151.887 3.42587 151.887 3.94155V8.82241C151.887 9.33813 151.61 9.81463 151.16 10.0792L146.94 12.5001C146.889 12.5258 146.8 12.5514 146.795 12.5529L146.729 113.034L75.6855 153.777L75.6592 194.149C75.7518 194.188 75.8449 194.215 75.9375 194.268L80.1562 196.729C80.606 196.993 80.8838 197.482 80.8838 197.998V202.879C80.8838 203.395 80.606 203.871 80.1562 204.136L75.9375 206.557C75.4879 206.821 74.9321 206.821 74.4824 206.557L70.2627 204.097C69.813 203.832 69.5352 203.342 69.5352 202.826V197.945C69.5352 197.43 69.813 196.953 70.2627 196.689L74.4824 194.268C74.5616 194.228 74.6278 194.201 74.707 194.175L74.7334 153.221L145.776 112.479L145.843 12.633C145.724 12.6065 145.604 12.5536 145.498 12.4874L141.279 10.0265C140.83 9.762 140.552 9.27277 140.552 8.75698V3.87514C140.552 3.35939 140.83 2.88378 141.279 2.61928L145.498 0.198386ZM75.9502 196.689C75.5005 196.437 74.9448 196.424 74.4951 196.689L72.3789 197.905C71.9292 198.157 71.6514 198.646 71.6514 199.162V201.61C71.6514 202.139 71.9293 202.614 72.3789 202.879L74.4951 204.11C74.9448 204.361 75.5005 204.374 75.9502 204.11L78.0664 202.893C78.5161 202.641 78.7939 202.152 78.7939 201.636V199.189C78.7939 198.66 78.5161 198.184 78.0664 197.919L75.9502 196.689ZM97.6025 177.573C97.0339 177.243 96.3196 177.243 95.751 177.573L93.0527 179.121C92.484 179.452 92.127 180.074 92.127 180.735V183.858C92.1271 184.519 92.4841 185.14 93.0527 185.471L95.751 187.045C96.3197 187.376 97.0338 187.376 97.6025 187.045L100.301 185.497C100.869 185.167 101.226 184.545 101.227 183.884V180.762C101.227 180.1 100.87 179.478 100.301 179.148L97.6025 177.573ZM167.664 73.9728C167.347 73.8008 166.963 73.7876 166.646 73.9728L165.164 74.8185C164.847 75.0037 164.648 75.3349 164.648 75.7052V77.4249C164.648 77.7953 164.834 78.1265 165.151 78.3117L166.633 79.171C166.95 79.3429 167.334 79.3562 167.651 79.171L169.133 78.3244C169.45 78.1391 169.648 77.8079 169.648 77.4376V75.7189C169.648 75.3485 169.463 75.0174 169.146 74.8322L167.664 73.9728ZM146.953 2.63198C146.503 2.3808 145.948 2.36747 145.498 2.63198L143.382 3.84878C142.932 4.10011 142.654 4.58981 142.654 5.10561V7.55288C142.654 8.08184 142.932 8.5578 143.382 8.82241L145.498 10.0529C145.948 10.3042 146.503 10.3173 146.953 10.0529L149.069 8.83608C149.519 8.58475 149.797 8.09514 149.797 7.57925V5.13198C149.797 4.60294 149.519 4.12697 149.069 3.86245L146.953 2.63198Z" fill="white" fill-opacity="0.31"></path></svg> 